<svg xmlns="http://www.w3.org/2000/svg" version="1.1" xmlns:xlink="http://www.w3.org/1999/xlink" xmlns:svgjs="http://svgjs.dev/svgjs" width="851" height="851"><svg width="851" height="851" viewBox="0 0 851 851" fill="none" xmlns="http://www.w3.org/2000/svg">
<path fill-rule="evenodd" clip-rule="evenodd" d="M150.974 138.064C128.842 138.055 110.89 156.083 110.871 178.337V389.551L15.3088 544.474L110.871 513.567V672.371C110.862 694.644 128.822 712.703 150.974 712.693H771.621C793.773 712.703 811.734 694.644 811.725 672.371V178.337C811.706 156.083 793.754 138.055 771.621 138.064H150.974Z" fill="#E01D49"></path>
<path fill-rule="evenodd" clip-rule="evenodd" d="M105.738 133.136C93.8925 144.98 87.7445 162.956 87.7445 187.554C87.7445 188.975 86.5932 190.126 85.1729 190.126C83.7527 190.126 82.6013 188.975 82.6013 187.554C82.6013 162.164 88.951 142.648 102.101 129.499C115.251 116.349 134.767 110 160.158 110C161.579 110 162.73 111.151 162.73 112.572C162.73 113.992 161.579 115.143 160.158 115.143C135.56 115.143 117.583 121.291 105.738 133.136Z" fill="#E01D49"></path>
<path fill-rule="evenodd" clip-rule="evenodd" d="M834.965 659.872C836.384 659.838 837.564 660.961 837.598 662.381C838.232 688.388 832.237 707.799 819.049 720.75C805.891 733.673 786.053 739.683 760.073 740C758.653 740.017 757.488 738.88 757.47 737.46C757.453 736.04 758.59 734.874 760.01 734.857C785.35 734.548 803.629 728.685 815.446 717.081C827.233 705.504 833.071 687.736 832.456 662.506C832.422 661.086 833.545 659.907 834.965 659.872Z" fill="#E01D49"></path>
<path d="M275.088 208.633C278.217 209.737 281.267 211.287 284.491 211.854C291.701 213.121 298.971 214.381 306.263 214.769C319.145 215.455 332.046 215.688 344.457 219.751C354.778 223.129 362.726 229.531 370.113 237.588C384.719 253.519 393.943 272.707 404.806 290.942C409.923 299.531 415.473 307.861 420.755 316.352C425.457 323.91 431.855 329.444 440.438 332.955C439.826 331.369 439.317 329.904 438.704 328.483C430.692 309.93 423.389 291.026 414.451 272.93C404.228 252.233 390.615 233.771 371.575 220.08C366.647 216.536 360.895 214.139 355.75 211.34C371.526 212.043 386.22 216.952 397.524 228.778C411.209 243.095 421.691 259.557 428.691 278.349C436.501 299.313 444.457 320.273 455.428 339.909C457.335 343.321 459.397 346.219 462.791 348.241C465.75 350.004 468.502 352.113 471.699 354.294C472.217 354.493 472.383 354.468 472.548 354.444C472.421 354.246 472.294 354.048 472.166 353.85C468.94 345.758 465.102 337.847 462.629 329.53C458.838 316.781 456.27 303.672 452.649 290.866C449.654 280.277 445.995 269.87 442.394 259.463C441.362 256.478 439.512 253.777 437.821 250.531C439.062 251.26 440.242 251.772 441.209 252.551C454.107 262.943 461.762 276.477 465.211 292.566C468.15 306.273 470.841 320.05 474.355 333.611C476.564 342.133 479.653 350.506 483.202 358.57C485.076 362.825 488.362 366.707 491.749 369.997C498.684 376.735 506.114 382.962 513.347 389.392C514.176 390.129 515.049 390.816 516.614 392.119C516.298 390.413 516.24 389.562 515.98 388.778C511.628 375.658 509.342 362.26 510.069 348.378C510.87 333.051 509.682 317.934 503.166 303.787C500.553 298.113 496.964 292.887 493.88 287.562C494.45 287.825 495.664 288.165 496.62 288.859C508.207 297.27 514.957 309.027 517.517 322.694C519.387 332.677 519.517 343.044 519.769 353.256C520.064 365.174 521.153 376.888 524.598 388.357C527.905 399.362 533.215 409.14 541.329 417.341C543.355 419.389 545.664 421.268 547.236 423.629C550.633 428.735 555.279 429.446 560.991 428.164C560.413 423.062 559.439 417.857 559.313 412.632C559.05 401.815 559.505 390.98 559.176 380.168C558.724 365.33 557.046 350.648 551.662 336.373C552.359 337.258 553.099 338.112 553.747 339.032C565.21 355.298 570.192 373.485 570.184 393.272C570.181 402.6 570.766 411.928 571.112 421.254C571.192 423.419 571.384 425.58 571.585 428.673C580.915 428.673 590.1 428.723 599.283 428.58C600.024 428.568 600.94 427.349 601.444 426.495C605.701 419.286 609.479 411.753 614.241 404.9C616.963 400.981 621.249 398.148 625.347 395.242C621.679 406.299 616.081 416.423 613.351 428.176C633.991 428.176 654.108 428.176 674.24 428.176C674.862 425.894 675.508 423.517 676.155 421.14C676.512 421.129 676.869 421.118 677.225 421.107C677.826 424.008 678.426 426.908 679.164 430.472C680.336 426.447 681.157 423.006 682.382 419.714C682.887 418.356 684.259 417.321 685.237 416.139C686.31 417.345 687.876 418.384 688.355 419.792C689.473 423.085 690.069 426.556 691.499 429.912C692.027 426.98 692.554 424.048 693.081 421.117C693.582 421.101 694.083 421.085 694.584 421.069C695.432 424.79 696.279 428.511 697.189 432.51C698.062 432.51 699.271 432.51 700.763 432.51C700.852 431.94 700.749 431.142 701.095 430.685C702.009 429.479 702.965 427.822 704.202 427.504C705.104 427.272 706.738 428.676 707.58 429.724C708.713 431.134 709.286 432.979 710.299 434.504C712.755 438.2 715.881 438.393 718.781 435.137C723.361 429.994 723.099 430.389 727.616 435.682C731.995 440.814 732.293 445.238 728.07 450.257C727.261 451.219 726.737 452.42 725.921 453.374C724.195 455.394 722.204 455.523 720.197 453.785C719.331 453.036 718.627 452.102 717.816 451.285C715.004 448.455 713.17 448.614 710.917 451.899C709.615 453.797 708.465 455.811 707.03 457.6C706.399 458.386 705.079 459.332 704.339 459.145C703.338 458.893 702.152 457.76 701.834 456.756C701.248 454.903 700.934 452.7 698.481 453.652C697.371 454.083 696.625 456.095 696.213 457.533C695.506 460.001 695.191 462.581 694.711 465.115C694.213 465.143 693.714 465.172 693.216 465.2C692.646 461.771 692.076 458.342 691.506 454.913C691.346 454.85 691.186 454.788 691.026 454.725C689.498 459.892 687.969 465.059 686.289 470.74C681.183 466.504 680.862 461.024 679.491 456.052C679.202 456.093 678.914 456.135 678.625 456.176C678.167 459.196 677.71 462.216 677.252 465.236C676.942 465.262 676.632 465.287 676.322 465.313C676.037 464.218 675.409 463.084 675.528 462.035C675.984 458.006 673.755 457.795 670.574 457.79C592.207 457.676 513.84 457.482 435.473 457.294C389.145 457.182 342.817 457.056 296.489 456.936C295.343 456.933 294.196 456.936 293.361 456.936C292.061 458.749 290.922 460.338 289.298 462.602C295.259 483.199 301.96 504.293 318.314 520.669C320.122 522.48 321.782 523.323 324.661 522.754C332.095 521.284 336.57 525.31 336.721 532.97C336.764 535.122 336.728 537.275 336.728 539.599C337.517 539.458 338.304 539.389 339.049 539.172C344.313 537.643 348.777 539.039 352.69 542.733C356.796 546.609 361.09 550.293 365.067 554.294C370.852 560.112 377.503 561.207 385.03 558.614C385.646 558.402 386.273 558.219 387.084 557.963C384.59 562.126 380.41 564.372 376.224 563.088C372.445 561.929 368.938 559.885 364.677 557.942C367.301 563.675 371.615 565.938 383.35 568.394C380.109 571.842 376.268 572.692 371.971 570.213C368.509 568.215 365.443 565.535 362.168 563.204C361.271 562.565 360.257 562.091 358.858 562.125C364.102 569.417 370.581 575.304 378.251 580.449C373.078 581.947 369.083 580.471 365.758 577.054C363.029 574.25 360.589 571.165 357.89 568.329C357.038 567.433 355.761 566.942 354.679 566.265C354.336 566.634 353.993 567.004 353.65 567.373C355.778 570.544 357.875 573.736 360.04 576.88C362.834 580.937 364.028 585.454 363.501 590.287C363.264 592.461 362.226 594.548 360.944 596.731C359.686 586.843 355.258 578.747 349.122 571.496C348.789 571.636 348.457 571.776 348.124 571.917C349.207 574.607 349.997 577.465 351.425 579.958C356.363 588.578 352.475 598.704 346.833 604.671C346.409 605.119 345.769 605.364 344.67 605.644C349.555 595.036 346.815 585.32 341.886 575.862C341.527 575.171 340.794 574.674 340.235 574.088C339.942 574.253 339.648 574.419 339.354 574.585C339.948 576.199 340.495 577.832 341.141 579.424C344.839 588.524 342.545 595.887 334.307 601.208C334.068 601.362 333.702 601.318 332.773 601.464C336.764 595.729 338.59 589.72 337.295 583.313C336.424 579.001 334.934 574.71 333.041 570.734C330.509 565.415 327.58 560.267 327.6 554.209C327.609 551.408 328.364 548.609 328.815 545.581C328.677 545.519 328.288 545.195 327.89 545.184C319.309 544.952 314.601 539.497 316.027 530.987C316.359 529.007 315.887 527.859 314.746 526.427C309.515 519.854 304.269 513.283 299.296 506.516C294.762 500.345 291.676 493.516 290.183 485.872C289.425 481.99 287.366 478.361 285.894 474.618C285.428 474.771 284.962 474.924 284.495 475.077C286.299 485.916 287.968 496.779 289.942 507.587C292.152 519.685 295.036 531.616 294.505 544.127C293.823 560.207 288.267 573.427 274.68 582.756C273.767 583.383 272.919 584.916 272.965 585.988C273.17 590.75 271.348 594.328 267.242 596.588C263.227 598.799 259.167 599.066 254.929 595.182C254.929 596.953 254.89 598.005 254.936 599.053C255.17 604.463 253.374 608.982 249.135 612.455C245.303 615.594 241.499 618.766 237.655 621.888C231.691 626.731 226.726 632.007 229.521 640.713C225.976 639.968 224.186 636.432 225.615 632.671C226.45 630.474 228.039 628.552 229.366 626.558C230.092 625.469 230.979 624.487 232.006 623.189C226.699 623.227 222.475 629.436 219.579 640.647C217.057 637.083 216.561 630.897 219.631 626.614C222.443 622.692 226.399 619.589 229.803 616.173C226.143 615.511 218.175 621.698 209.871 631.763C208.299 628.627 208.569 625.385 211.781 622.363C215.355 619.001 219.549 616.302 223.447 613.281C224.504 612.461 225.465 611.518 226.47 610.632C226.206 610.201 225.943 609.77 225.679 609.339C224.319 609.848 222.883 610.216 221.612 610.892C216.908 613.394 212.191 615.755 206.624 615.333C202.892 615.05 199.768 613.689 197.171 609.995C206.944 610.795 215.625 609.103 223.09 603.352C223.022 603.006 222.955 602.66 222.887 602.314C221.889 602.448 220.893 602.598 219.893 602.713C215.344 603.239 210.77 604.334 206.249 604.145C198.622 603.825 193.426 599.286 189.812 592.52C200.468 596.866 211.086 600.179 221.946 592.864C220.604 592.864 219.257 592.781 217.923 592.881C215.071 593.094 212.168 593.902 209.392 593.571C202.875 592.795 199.105 587.936 197.733 578.578C198.676 579.873 199.094 580.522 199.585 581.109C206.123 588.926 213.806 590.755 223.393 587.267C227.893 585.63 232.586 584.337 237.301 583.53C241.917 582.739 246.522 583.339 250.462 587.398C250.699 586.288 250.79 585.683 250.958 585.101C253.482 576.34 259.453 573.553 267.979 576.87C269.276 577.374 271.471 577.187 272.55 576.381C282.457 568.981 287.708 559.103 288.068 546.614C288.566 529.299 285.104 512.522 281.711 495.695C279.463 484.544 277.763 473.283 275.894 462.511C274.655 461.117 273.551 459.811 272.373 458.576C271.783 457.958 271.056 457.47 270.391 456.924C269.884 457.725 269.162 458.467 268.917 459.342C268.495 460.853 268.368 462.447 268.117 464.005C267.733 464.06 267.348 464.114 266.963 464.168C266.378 461.254 265.793 458.34 265.208 455.426C264.997 455.487 264.787 455.548 264.576 455.609C263.092 460.27 261.609 464.931 259.948 470.148C254.792 465.844 254.712 460.407 252.525 455.59C252.069 458.467 251.612 461.344 251.156 464.222C250.713 464.255 250.271 464.288 249.828 464.322C249.251 461.43 248.761 458.517 248.056 455.657C247.76 454.459 247.01 453.372 246.467 452.235C245.325 453.159 244.121 454.017 243.061 455.026C241.965 456.069 240.747 458.335 240.045 458.165C238.501 457.789 237.033 456.394 235.938 455.079C234.86 453.784 234.418 451.982 233.455 450.567C231.602 447.849 228.76 447.688 226.455 450.044C225.894 450.618 225.436 451.291 224.903 451.894C222.479 454.637 220.876 454.611 218.427 451.801C218.276 451.628 218.14 451.44 218.012 451.249C216.048 448.32 212.108 445.014 212.576 442.545C213.322 438.608 216.87 435.123 219.556 431.701C220.089 431.023 222.138 431.239 223.376 431.525C224.101 431.693 224.608 432.812 225.207 433.508C228.415 437.234 231.675 436.97 234.391 432.781C235.391 431.239 236.304 429.613 237.49 428.225C239.528 425.837 240.887 426.118 242.475 428.841C243.415 430.454 243.319 433.719 246.133 432.721C247.218 432.336 247.439 429.304 247.903 427.44C248.451 425.24 248.835 423 249.29 420.777C249.739 420.79 250.188 420.803 250.636 420.816C251.251 423.042 251.867 425.269 252.578 427.843C253.663 424.804 254.468 421.892 255.757 419.213C256.431 417.811 257.957 416.819 259.099 415.642C260.019 416.894 261.202 418.033 261.797 419.425C262.739 421.629 263.261 424.01 264.015 426.298C264.341 427.289 264.801 428.235 265.902 429.051C266.26 426.469 266.619 423.887 266.977 421.305C267.384 421.266 267.792 421.226 268.199 421.186C268.812 423.452 269.426 425.717 270.208 428.609C271.257 427.339 272.132 426.416 272.849 425.384C274.612 422.844 276.425 422.809 278.176 425.35C280.456 428.661 283.603 428.703 286.243 425.78C287.268 424.645 289.151 423.34 290.346 423.582C291.436 423.803 292.124 426.01 293.296 427.815C371.824 427.815 451.095 427.815 530.366 427.815C530.646 427.56 530.926 427.304 531.206 427.048C530.42 426.662 529.574 426.365 528.858 425.876C513.675 415.501 497.213 411.115 478.806 414.355C460.065 417.655 441.124 419.262 422.093 419.559C417.365 419.633 412.71 419.004 408.441 414.85C420.608 414.868 431.443 411.7 442.27 408.371C448.741 406.381 455.29 404.598 461.885 403.072C475.784 399.856 489.329 402.254 502.74 406.105C506.097 407.069 509.476 407.957 512.845 408.88C513.054 408.557 513.264 408.234 513.474 407.911C509.044 403.966 504.895 399.637 500.135 396.142C481.925 382.773 461.766 376.425 439.398 382.539C427.816 385.705 416.82 390.968 405.467 395.026C392.53 399.651 379.267 402.334 365.512 399.493C361.578 398.681 357.832 396.955 354.298 395.118C361.534 394.135 369.087 394.14 375.936 391.948C387.604 388.214 399 383.478 410.198 378.466C423.609 372.464 437.358 368.275 452.123 368.617C458.273 368.759 464.396 370.006 470.639 370.763C467.028 367.552 463.369 364.263 459.653 361.039C459.175 360.624 458.401 360.33 457.771 360.343C445.683 360.592 433.578 360.589 421.511 361.268C407.448 362.06 394.3 366.509 381.529 372.325C368.36 378.323 355.132 384.248 340.893 387.391C320.641 391.86 300.863 389.423 281.353 383.241C280.411 382.943 279.528 382.455 278.72 382.578C286.261 382.578 293.802 382.677 301.341 382.558C317.435 382.302 332.247 376.826 346.767 370.683C363.386 363.653 379.854 356.284 397.528 352.214C410.261 349.282 423.107 347.415 436.224 348.967C437.771 349.15 439.3 349.479 441.69 349.885C440.7 348.771 440.319 348.156 439.778 347.76C427.25 338.607 427.247 338.568 411.673 338.639C396.057 338.709 380.642 339.965 366.077 346.378C357.666 350.081 349.253 353.81 340.673 357.088C324.424 363.296 307.839 368.417 290.426 370.131C277.483 371.404 265.276 368.985 254.617 362.416C267.832 361.302 281.654 361.183 295.043 358.713C308.383 356.251 321.288 351.43 334.384 347.643C334.331 347.311 334.277 346.979 334.224 346.646C329.2 344.376 324.206 342.036 319.121 339.911C318.381 339.602 317.179 340.243 316.242 340.583C298.968 346.86 281.259 350.43 262.786 349.052C253.284 348.344 244.211 345.984 235.76 341.471C235.152 341.146 234.54 340.825 233.968 340.446C233.833 340.357 233.852 340.037 233.812 339.873C258.439 339.953 283.168 341.016 307.375 332.35C303.746 327.915 300.645 324.008 294.688 324.599C284.982 325.561 275.229 326.126 265.562 327.373C253.628 328.913 241.679 330.671 230.07 326.294C224.259 324.103 218.878 320.772 213.302 317.956C213.444 317.532 213.585 317.108 213.727 316.684C214.424 316.653 215.184 316.424 215.811 316.62C228.885 320.698 241.933 319.84 254.988 316.53C266.204 313.687 277.643 314.448 289.036 314.485C289.955 314.488 290.875 314.486 291.806 314.486C290.862 308.294 289.748 307.179 284.196 306.06C270.758 303.353 257.392 303.271 243.705 304.853C227.716 306.701 213.225 301.797 201.133 290.489C201.16 290.177 201.333 290.005 201.333 290.005C208.442 291.354 215.519 292.908 222.668 293.991C229.1 294.965 235.471 294.274 241.795 292.503C256.069 288.506 270.213 288.726 284.048 294.553C284.439 294.718 284.849 294.838 285.561 295.089C286.027 292.061 286.64 289.247 286.785 286.409C286.827 285.593 285.694 284.317 284.801 283.915C272.762 278.496 260.144 276.84 247.041 278.18C237.19 279.187 227.329 280.242 217.504 277.68C204.359 274.251 194.804 265.968 186.689 255.085C187.562 255.194 188.256 255.226 188.922 255.38C189.59 255.534 190.229 255.814 190.884 256.03C200.372 259.151 209.74 262.748 219.397 265.208C225.102 266.661 231.259 266.547 237.226 266.727C251.732 267.162 266.26 267.222 280.443 270.917C282.33 271.408 284.403 271.679 286.005 272.674C290.209 275.282 293.114 273.956 295.813 270.366C296.748 269.122 298.31 268.348 299.938 267.086C289.39 260.923 278.913 259.051 267.812 259.442C257.914 259.79 247.989 260.118 238.1 259.773C227.689 259.41 217.54 257.225 208.243 252.236C204.977 250.482 202.001 248.187 198.893 246.139C199.043 245.851 199.193 245.564 199.343 245.276C204.26 246.209 209.172 247.172 214.095 248.07C228.292 250.658 242.509 250.229 256.765 248.493C268.783 247.029 280.923 245.489 292.795 248.899C299.372 250.788 305.664 253.767 311.932 256.595C314.729 257.857 317.238 258.21 320.167 257.338C323.321 256.399 326.595 255.863 329.816 255.151C330.063 254.774 330.31 254.398 330.557 254.021C329.33 253.184 328.035 252.431 326.888 251.495C316.628 243.127 305.204 238.427 291.652 239.086C283.159 239.5 274.595 239.351 266.108 238.787C254.71 238.03 245.084 232.135 235.298 226.564C236.772 226.77 238.277 226.847 239.713 227.201C250.939 229.972 262.24 232 273.876 230.793C280.848 230.07 287.805 228.699 294.781 228.62C311.32 228.434 325.628 235.024 338.815 244.459C339.283 244.794 339.791 245.087 340.207 245.479C351.315 255.939 364.348 263.716 377.551 271.919C377.468 271.122 377.604 270.237 377.276 269.584C366.434 247.995 351.519 230.806 326.971 224.754C319.412 222.89 311.454 222.695 303.821 221.065C296.674 219.539 289.61 217.421 282.724 214.961C279.842 213.932 277.514 211.347 274.918 209.162C274.902 208.854 275.088 208.633 275.088 208.633ZM323.28 264.062C322.098 264.506 320.901 264.912 319.738 265.399C294.656 275.876 289.353 307.223 309.714 324.612C325.444 338.045 349.978 336.84 364.109 321.732C372.348 312.923 375.589 302.426 372.784 290.548C367.84 269.609 345.481 257.556 323.28 264.062ZM631.094 449.209C635.184 451.028 639.311 451.186 643.412 449.322C646.151 448.077 648.361 446.238 648.428 442.947C648.498 439.477 646.2 437.552 643.361 436.247C639.762 434.592 636.039 434.529 632.322 435.906C629.375 436.997 626.939 438.767 626.456 442.056C625.974 445.337 628.012 447.386 631.094 449.209ZM317.847 450.496C319.362 449.997 321.268 449.905 322.305 448.908C324.092 447.192 326.135 445.081 326.613 442.827C327.229 439.918 324.824 437.751 322.213 436.516C317.181 434.134 312.172 434.273 307.579 437.583C303.656 440.41 303.469 445.463 307.602 447.878C310.397 449.511 314.018 449.727 317.847 450.496ZM478.815 450.324C480.503 449.655 482.376 449.259 483.847 448.268C488.286 445.276 488.202 440.319 483.828 437.22C479.5 434.153 472.163 434.287 467.964 437.51C464.027 440.531 463.85 445.691 468.198 448.04C471.135 449.627 474.878 449.72 478.815 450.324ZM498.372 446.137C503.034 451.207 510.731 452.156 516.13 448.326C520.471 445.247 520.45 440.271 516.085 437.228C511.878 434.296 505.063 434.242 500.774 437.107C497.51 439.287 496.75 441.743 498.372 446.137ZM579.246 436.384C574.392 434.294 569.621 434.329 565.149 437.295C560.689 440.251 560.702 445.363 565.171 448.323C569.278 451.043 573.731 451.349 578.304 449.557C581.244 448.405 583.616 446.526 583.913 443.209C584.188 440.128 582.235 438.123 579.246 436.384ZM595.222 439.417C593.345 443.514 594.143 446.491 597.996 448.688C602.75 451.399 607.663 451.414 612.386 448.645C617.551 445.616 617.433 439.896 612.268 436.836C606.898 433.654 600.151 434.525 595.222 439.417ZM542.002 435.003C538.951 435.761 535.544 435.902 532.925 437.411C528.236 440.113 528.449 445.202 532.88 448.34C537.423 451.557 544.757 451.347 549.001 447.879C552.493 445.026 552.696 440.578 549.084 437.913C547.23 436.545 544.758 436.014 542.002 435.003Z" fill="white"></path>
<path d="M350.75 302.278C351.858 306.114 353.384 309.72 354.375 313.466C355.393 317.319 353.982 320.497 350.483 322.584C346.605 324.897 342.543 325.942 337.953 324.99C325.397 322.388 313.957 308.06 314.467 295.3C314.686 289.821 316.752 285.077 321.288 281.952C329.888 276.028 339.392 273.963 349.479 277.28C355.223 279.168 360.621 282.511 361.151 289.14C361.699 295.996 356.246 299.263 350.75 302.278Z" fill="white"></path>
</svg><style>@media (prefers-color-scheme: light) { :root { filter: none; } }
@media (prefers-color-scheme: dark) { :root { filter: none; } }
</style></svg>